<svg xmlns="http://www.w3.org/2000/svg" version="1.1" id="Layer_1" x="0" y="0" width="180" height="180" viewBox="-2.5 189.45 180 180" enable-background="new -2.5 189.45 180 180" xml:space="preserve"><path fill="#369647" d="M103.8 212.2c-5.8 0-11.3 0.7-16.7 2.2 28.6 7.4 49.9 33.1 50.4 63.7v2.6c-0.7 18-15.7 32.4-33.7 32.4 -6.1 0-11.9-1.6-16.7-4.5C77 302.8 70.3 292 70.3 279.4c0-12.6 6.8-23.2 16.7-29.2 -4.9-2.9-10.6-4.5-16.7-4.5 -18.2 0-32.9 14.4-33.5 32.4v2.6c0.5 30.8 21.8 56.5 50.4 63.7 5.4 1.4 11 2.2 16.7 2.2 37.1 0 67.1-30.1 67.1-67.1C171 242.3 140.9 212.2 103.8 212.2z"/><path fill="#AEEA00" d="M137.3 278.1c-0.5-30.8-21.8-56.5-50.4-63.7 -5.4-1.4-11-2.2-16.7-2.2C33.1 212.2 3 242.3 3 279.4c0 37.1 30.1 67.1 67.1 67.1 5.8 0 11.3-0.7 16.7-2.2C58.4 336.9 37.1 311.4 36.6 280.6v-1.3V278c0.7-18 15.5-32.4 33.5-32.4 6.1 0 11.9 1.6 16.7 4.5 10.1 5.8 16.7 16.6 16.7 29.2 0 12.6-6.8 23.2-16.7 29.2 5 2.7 10.8 4.5 16.9 4.5 18.2 0 32.9-14.4 33.5-32.4v-1.3C137.3 279 137.3 278.5 137.3 278.1L137.3 278.1z"/><linearGradient id="SVGID_1_" gradientUnits="userSpaceOnUse" x1="68.39" y1="-57.95" x2="68.39" y2="16.43" gradientTransform="matrix(1.8 0 0 1.8 -52.9602 316.8895)"><stop offset="0" style="stop-color:#000000;stop-opacity:0.6"/><stop offset="0.6" style="stop-color:#000000;stop-opacity:0.1"/></linearGradient><path opacity="0.15" fill="url(#SVGID_1_)" enable-background="new    " d="M137.3 278.1c-0.5-30.8-21.8-56.5-50.4-63.7 -5.4-1.4-11-2.2-16.7-2.2C33.1 212.2 3 242.3 3 279.4c0 37.1 30.1 67.1 67.1 67.1 5.8 0 11.3-0.7 16.7-2.2C58.4 336.9 37.1 311.4 36.6 280.6v-1.3V278c0.7-18 15.5-32.4 33.5-32.4 6.1 0 11.9 1.6 16.7 4.5 10.1 5.8 16.7 16.6 16.7 29.2 0 12.6-6.8 23.2-16.7 29.2 5 2.7 10.8 4.5 16.9 4.5 18.2 0 32.9-14.4 33.5-32.4v-1.3C137.3 279 137.3 278.5 137.3 278.1L137.3 278.1z"/><linearGradient id="SVGID_2_" gradientUnits="userSpaceOnUse" x1="87.14" y1="16.08" x2="87.14" y2="-58.23" gradientTransform="matrix(1.8 0 0 1.8 -52.9602 316.8895)"><stop offset="0" style="stop-color:#000000;stop-opacity:0.6"/><stop offset="0.6" style="stop-color:#000000;stop-opacity:0.1"/></linearGradient><path opacity="0.15" fill="url(#SVGID_2_)" enable-background="new    " d="M103.8 212.2c-5.8 0-11.3 0.7-16.7 2.2 28.6 7.4 49.9 33.1 50.4 63.7v2.6c-0.7 18-15.7 32.4-33.7 32.4 -6.1 0-11.9-1.6-16.7-4.5C77 302.8 70.3 292 70.3 279.4c0-12.6 6.8-23.2 16.7-29.2 -4.9-2.9-10.6-4.5-16.7-4.5 -18.2 0-32.9 14.4-33.5 32.4v2.6c0.5 30.8 21.8 56.5 50.4 63.7 5.4 1.4 11 2.2 16.7 2.2 37.1 0 67.1-30.1 67.1-67.1C171 242.3 140.9 212.2 103.8 212.2z"/><linearGradient id="SVGID_3_" gradientUnits="userSpaceOnUse" x1="58.89" y1="-13.79" x2="71.55" y2="26.93" gradientTransform="matrix(1.8 0 0 1.8 -52.9602 316.8895)"><stop offset="0" style="stop-color:#000000;stop-opacity:0.5"/><stop offset="0.75" style="stop-color:#000000;stop-opacity:0.03"/></linearGradient><path opacity="0.4" fill="url(#SVGID_3_)" enable-background="new    " d="M86.9 344.4c-28.4-7.4-49.7-32.9-50.2-63.7v-0.2 0.5c0.4 26.1 9.7 49.3 24.3 65 3.1 0.4 6.1 0.7 9.2 0.7C75.9 346.5 81.7 345.8 86.9 344.4z"/><linearGradient id="SVGID_4_" gradientUnits="userSpaceOnUse" x1="51.33" y1="-30.13" x2="87.92" y2="-30.13" gradientTransform="matrix(1.8 0 0 1.8 -52.9602 316.8895)"><stop offset="0" style="stop-color:#000000;stop-opacity:0.9"/><stop offset="0.6" style="stop-color:#000000;stop-opacity:0.1"/></linearGradient><path opacity="0.25" fill="url(#SVGID_4_)" enable-background="new    " d="M37 278.3c5.2-17.3 23.2-27.4 40.9-22.5 0.5 0.2 1.3 0.4 1.8 0.5 2.2-2.3 4.7-4.3 7.4-5.9 -4.9-2.9-10.6-4.5-16.7-4.5 -18.2 0-32.9 14.4-33.5 32.4v1.1C36.7 279 36.8 278.6 37 278.3z"/></svg>